<svg width="28" height="32" viewBox="0 0 28 32" fill="none" xmlns="http://www.w3.org/2000/svg">
<g clip-path="url(#clip0)">
<path opacity="0.68" d="M24.4391 8.13013C24.8295 5.64107 24.4364 3.9472 23.0903 2.4128C21.6076 0.723734 18.9298 0 15.5031 0H5.5575C4.85723 0 4.2615 0.509867 4.15216 1.20107L0.0108302 27.4624C-0.0707698 27.9808 0.329764 28.4496 0.85403 28.4496H6.9943L6.5703 31.1371C6.49883 31.5899 6.84923 32 7.3079 32H12.4834C13.0956 32 13.6172 31.5547 13.7127 30.9493L13.7639 30.6864L14.7388 24.504L14.8018 24.1621C14.8972 23.5568 15.4188 23.1115 16.0311 23.1115H16.8055C21.8188 23.1115 25.7452 21.0741 26.8924 15.1835C27.3719 12.7221 27.1239 10.6672 25.8562 9.22293C25.4722 8.78613 24.9954 8.42453 24.4391 8.13013Z" fill="white"/>
<path opacity="0.7" d="M24.4391 8.13013C24.8295 5.64107 24.4364 3.9472 23.0903 2.4128C21.6076 0.723733 18.9298 0 15.5031 0H5.5575C4.85723 0 4.2615 0.509867 4.15216 1.20107L0.0108302 27.4624C-0.0707698 27.9808 0.329764 28.4496 0.85403 28.4496H6.9943L8.5367 18.6693L8.4887 18.976C8.59803 18.2843 9.18896 17.7749 9.88923 17.7749H12.8076C18.5388 17.7749 23.0263 15.4464 24.3378 8.71253C24.3762 8.51307 24.4092 8.32 24.4391 8.13013Z" fill="white"/>
<path d="M10.1932 8.1632C10.2588 7.7472 10.526 7.4064 10.8855 7.23413C11.0492 7.15573 11.2316 7.112 11.4231 7.112H19.2194C20.1431 7.112 21.0039 7.17227 21.7911 7.2992C22.0162 7.33547 22.2354 7.37707 22.4476 7.424C22.6599 7.47093 22.8668 7.52427 23.0668 7.5824C23.1666 7.61173 23.2652 7.64213 23.3618 7.67413C23.7484 7.80267 24.1079 7.9536 24.4396 8.1296C24.83 5.64053 24.437 3.94667 23.0908 2.41227C21.6076 0.723733 18.9298 0 15.5031 0H5.5575C4.85723 0 4.2615 0.509867 4.15216 1.20107L0.0108302 27.4624C-0.0707698 27.9808 0.329764 28.4496 0.85403 28.4496H6.9943L8.5367 18.6693L10.1932 8.1632Z" fill="white"/>
</g>
<defs>
<clipPath id="clip0">
<rect width="27.1195" height="32" fill="white"/>
</clipPath>
</defs>
</svg>
