<svg width="28" height="32" viewBox="0 0 28 32" fill="none" xmlns="http://www.w3.org/2000/svg">
<g clip-path="url(#clip0)">
<path fill-rule="evenodd" clip-rule="evenodd" d="M13.7264 30.6809L14.7022 24.4943L14.7652 24.1515C14.8122 23.8533 14.9649 23.5806 15.1949 23.3843C15.4249 23.1879 15.7182 23.0796 16.0206 23.0796H16.7955C18.0871 23.0796 19.2736 22.9416 20.3225 22.6696C21.4416 22.3796 22.437 21.9278 23.2806 21.3279C24.1752 20.6918 24.9266 19.8695 25.5141 18.8844C26.134 17.8451 26.5891 16.5939 26.8671 15.1658C27.1128 13.9047 27.1588 12.7757 27.0045 11.8099C26.841 10.7895 26.4479 9.91893 25.8362 9.22153C25.4652 8.79911 24.9905 8.43312 24.4255 8.13367L24.4121 8.12649L24.4118 8.11018C24.6091 6.8514 24.6016 5.80138 24.3892 4.89749C24.1759 3.99165 23.7439 3.17649 23.0676 2.40601C21.6664 0.809616 19.1177 0 15.4927 0H5.53724C5.20447 0 4.88148 0.119061 4.62831 0.335328C4.37514 0.551595 4.20745 0.852021 4.15525 1.18083L0.00992523 27.4633C-0.0279197 27.7031 0.0409189 27.9467 0.198824 28.1307C0.356728 28.3157 0.586408 28.4217 0.829138 28.4217H7.00537L6.99982 28.451L6.57569 31.1402C6.54307 31.3493 6.6031 31.5613 6.74045 31.7218C6.8778 31.8826 7.07779 31.9753 7.2892 31.9753H12.4694C12.7601 31.9753 13.0416 31.8712 13.2625 31.6823C13.4834 31.4935 13.6302 31.2315 13.6755 30.9448L13.7264 30.6809Z" fill="#27346A"/>
<path fill-rule="evenodd" clip-rule="evenodd" d="M24.4367 8.11084C24.4071 8.30101 24.3741 8.49445 24.335 8.69375C23.0225 15.4333 18.5307 17.7633 12.7939 17.7633H9.87264C9.17186 17.7633 8.58004 18.2734 8.47075 18.9656L6.55077 31.1363C6.47932 31.5897 6.83004 32 7.28908 32H12.4696C13.0826 32 13.6046 31.5541 13.7002 30.9484L13.7511 30.6852L14.7269 24.4979L14.7899 24.156C14.8855 23.5503 15.4075 23.1044 16.0205 23.1044H16.7953C21.814 23.1044 25.7437 21.0657 26.8921 15.17C27.3717 12.7066 27.1237 10.6503 25.855 9.20457C25.4713 8.76747 24.9937 8.40572 24.4367 8.11084Z" fill="#2790C3"/>
<path fill-rule="evenodd" clip-rule="evenodd" d="M23.0629 7.56413C22.8629 7.50541 22.6564 7.45289 22.4433 7.40559C22.2303 7.3583 22.0114 7.31654 21.7862 7.28034C20.998 7.15345 20.1361 7.09277 19.2115 7.09277H11.4079C11.2164 7.09277 11.0337 7.13648 10.8699 7.21477C10.5101 7.38733 10.2429 7.7282 10.1773 8.14475L8.51866 18.6593L8.4707 18.9663C8.58 18.2741 9.17181 17.7639 9.8726 17.7639H12.7938C18.5306 17.7639 23.0224 15.4339 24.3349 8.69439C24.3741 8.49509 24.407 8.30165 24.4367 8.11148C24.1052 7.93599 23.745 7.78463 23.3581 7.65611C23.2612 7.62382 23.163 7.59316 23.0629 7.56413Z" fill="#1F264F"/>
</g>
<defs>
<clipPath id="clip0">
<rect width="27.1195" height="32" fill="white"/>
</clipPath>
</defs>
</svg>
